<svg xmlns="http://www.w3.org/2000/svg" viewBox="0 0 900 1400" role="img" aria-label="温暖的东北城市街区插图"><defs><linearGradient id="sky" x1="0" y1="0" x2="1" y2="1"><stop offset="0" stop-color="#fff3d6"/><stop offset="0.48" stop-color="#cfe8f4"/><stop offset="1" stop-color="#f8c77a"/></linearGradient><linearGradient id="road" x1="0" y1="0" x2="0" y2="1"><stop offset="0" stop-color="#e9f3ec"/><stop offset="1" stop-color="#cddfd7"/></linearGradient><linearGradient id="warm" x1="0" y1="0" x2="1" y2="0"><stop offset="0" stop-color="#ffd166" stop-opacity=".95"/><stop offset="1" stop-color="#ff7a1a" stop-opacity=".72"/></linearGradient><filter id="soft" x="-20%" y="-20%" width="140%" height="140%"><feGaussianBlur stdDeviation="18"/></filter></defs><rect width="900" height="1400" fill="url(#sky)"/><circle cx="140" cy="220" r="150" fill="#ffd166" opacity=".48" filter="url(#soft)"/><path d="M0 790 C180 720 310 780 460 710 C620 640 735 650 900 590 L900 1400 L0 1400 Z" fill="url(#road)"/><g opacity=".9"><rect x="500" y="260" width="260" height="540" rx="18" fill="#f3e5d2"/><rect x="520" y="292" width="58" height="72" rx="6" fill="#b7d6e5"/><rect x="602" y="292" width="58" height="72" rx="6" fill="#b7d6e5"/><rect x="684" y="292" width="48" height="72" rx="6" fill="#b7d6e5"/><rect x="520" y="400" width="58" height="72" rx="6" fill="#b7d6e5"/><rect x="602" y="400" width="58" height="72" rx="6" fill="#b7d6e5"/><rect x="684" y="400" width="48" height="72" rx="6" fill="#b7d6e5"/><rect x="520" y="508" width="58" height="72" rx="6" fill="#b7d6e5"/><rect x="602" y="508" width="58" height="72" rx="6" fill="#b7d6e5"/><rect x="684" y="508" width="48" height="72" rx="6" fill="#b7d6e5"/><rect x="520" y="616" width="58" height="72" rx="6" fill="#b7d6e5"/><rect x="602" y="616" width="58" height="72" rx="6" fill="#b7d6e5"/><rect x="684" y="616" width="48" height="72" rx="6" fill="#b7d6e5"/><rect x="260" y="365" width="250" height="425" rx="16" fill="#f7eadc"/><rect x="286" y="398" width="54" height="68" rx="6" fill="#c0dae6"/><rect x="360" y="398" width="54" height="68" rx="6" fill="#c0dae6"/><rect x="434" y="398" width="48" height="68" rx="6" fill="#c0dae6"/><rect x="286" y="504" width="54" height="68" rx="6" fill="#c0dae6"/><rect x="360" y="504" width="54" height="68" rx="6" fill="#c0dae6"/><rect x="434" y="504" width="48" height="68" rx="6" fill="#c0dae6"/><rect x="286" y="610" width="54" height="68" rx="6" fill="#c0dae6"/><rect x="360" y="610" width="54" height="68" rx="6" fill="#c0dae6"/><rect x="434" y="610" width="48" height="68" rx="6" fill="#c0dae6"/></g><g opacity=".88"><circle cx="145" cy="770" r="94" fill="#6fb47e"/><circle cx="210" cy="735" r="72" fill="#55b86a"/><circle cx="86" cy="720" r="70" fill="#7fc28c"/><rect x="136" y="790" width="34" height="260" rx="15" fill="#8a6541"/><circle cx="780" cy="775" r="86" fill="#69ad76"/><circle cx="720" cy="748" r="64" fill="#55b86a"/><rect x="758" y="798" width="32" height="250" rx="14" fill="#8a6541"/></g><g opacity=".78"><rect x="560" y="860" width="240" height="118" rx="28" fill="#fff7e8"/><rect x="590" y="892" width="180" height="18" rx="9" fill="#ff7a1a" opacity=".78"/><rect x="590" y="928" width="125" height="16" rx="8" fill="#4aa3ff" opacity=".68"/></g><g fill="none" stroke="#ffffff" stroke-opacity=".65" stroke-width="8"><path d="M110 1050 C255 1005 380 1010 525 964 C660 920 770 900 900 842"/><path d="M0 1135 C210 1090 362 1108 530 1052 C675 1004 790 998 900 948"/></g><g opacity=".86"><circle cx="380" cy="980" r="18" fill="#17202a"/><rect x="368" y="998" width="24" height="76" rx="12" fill="#17202a"/><rect x="350" y="1068" width="20" height="74" rx="10" fill="#17202a"/><rect x="392" y="1068" width="20" height="74" rx="10" fill="#17202a"/><circle cx="430" cy="998" r="16" fill="#17202a"/><rect x="418" y="1014" width="24" height="70" rx="12" fill="#17202a"/><rect x="405" y="1078" width="18" height="62" rx="9" fill="#17202a"/><rect x="440" y="1078" width="18" height="62" rx="9" fill="#17202a"/></g><rect x="0" y="0" width="900" height="1400" fill="url(#warm)" opacity=".08"/></svg>